# xmcd CD database file
#
# Track frame offsets:
#	150
#	12767
#	25122
#	38399
#	51743
#	71627
#	83353
#	92704
#	107186
#	122325
#	147363
#	165591
#	179298
#	192655
#	209377
#	220178
#	234707
#	251329
#	264555
#	277701
#
# Disc length: 3888 seconds
#
# Revision: 0
# Processed by: cddbd v1.5.2PL0 Copyright (c) Steve Scherf et al.
# Submitted via: CDex 1.51
#
DISCID=110f2e14
DTITLE=Quincy Jones - Complete Recordings
DYEAR=2013
DGENRE=Jazz
TTITLE0=Soul Bossa Nova
TTITLE1=Boogie Stop Shuffle
TTITLE2=Desafinado
TTITLE3=Manha De Carnaval
TTITLE4=Se E Tarde Me Pardoa
TTITLE5=On The Street Where You Live
TTITLE6=Samba De Uma Nota So
TTITLE7=Lalo Bossa Nova
TTITLE8=Seranato
TTITLE9=Chega Da Saudade
TTITLE10=You're Mine You
TTITLE11=The Best is Yet To Come
TTITLE12=Witchcraft
TTITLE13=The Second Time Around
TTITLE14=I Could Write a Book
TTITLE15=Maria
TTITLE16=Baubles, Bangels and Beads
TTITLE17=Fly Me To The Moon
TTITLE18=So Long
TTITLE19=On Green Dolphin Street
EXTD=YEAR: 2013
EXTT0=
EXTT1=
EXTT2=
EXTT3=
EXTT4=
EXTT5=
EXTT6=
EXTT7=
EXTT8=
EXTT9=
EXTT10=
EXTT11=
EXTT12=
EXTT13=
EXTT14=
EXTT15=
EXTT16=
EXTT17=
EXTT18=
EXTT19=
PLAYORDER=
